<svg xmlns="http://www.w3.org/2000/svg" viewBox="0 0 148.31 96.66"><defs><style>.cls-1{fill:#754c28;}.cls-2{fill:#006838;}.cls-3{fill:#f6921e;}</style></defs><title>Asset 2</title><g id="Layer_2" data-name="Layer 2"><g id="Layer_1-2" data-name="Layer 1"><path class="cls-1" d="M16.46,85.79l-2.07,1.27c-.23-.23-.67-.63-1.32-1.21s-1.65-1.48-3-2.71V83a2.81,2.81,0,0,0,.59-.36,2.4,2.4,0,0,0,.57-.58,2,2,0,0,0,.31-.64,1.74,1.74,0,0,0,0-.79,1.4,1.4,0,0,0-.37-.75,1.44,1.44,0,0,0-.73-.41,2.11,2.11,0,0,0-.71,0l-.68.08-.3.06-.14,0c.1.58.2,1.18.31,1.78s.2,1.15.29,1.63c.14.8.3,1.66.48,2.6s.3,1.62.38,2l-2.41.44c-.07-.39-.16-1-.29-1.7s-.32-1.85-.59-3.31l-.3-1.67c-.14-.73-.33-1.76-.59-3.09l.88-.18C7.24,78,7.65,78,8,77.89a19.05,19.05,0,0,1,1.9-.28,6.74,6.74,0,0,1,1.56,0,3,3,0,0,1,1.68.72,2.41,2.41,0,0,1,.76,1.38,2.54,2.54,0,0,1-.23,1.69,4.26,4.26,0,0,1-.87,1.19v0c.62.54,1.28,1.09,2,1.65A16.7,16.7,0,0,1,16.46,85.79Z"/><path class="cls-1" d="M26.79,80.07a5.47,5.47,0,0,1-.13,2.22,5,5,0,0,1-1,1.87,4.89,4.89,0,0,1-1.5,1.22,5.59,5.59,0,0,1-1.88.59,6.1,6.1,0,0,1-2,0,4.84,4.84,0,0,1-1.72-.72,5,5,0,0,1-1.46-1.56,5.49,5.49,0,0,1-.76-2.18,5.73,5.73,0,0,1,.09-2.12,5.17,5.17,0,0,1,.9-1.84,4.85,4.85,0,0,1,1.49-1.28,5.68,5.68,0,0,1,2-.64,5.59,5.59,0,0,1,2.05.07,4.66,4.66,0,0,1,1.76.78A4.81,4.81,0,0,1,26.11,78,5.74,5.74,0,0,1,26.79,80.07Zm-2.49.41a4.39,4.39,0,0,0-.44-1.43,3,3,0,0,0-.93-1.11,2.62,2.62,0,0,0-.81-.38,2.34,2.34,0,0,0-1,0,2.51,2.51,0,0,0-.91.3,2.66,2.66,0,0,0-.71.64A3.12,3.12,0,0,0,19,79.69a4.16,4.16,0,0,0-.07,1.45,4.29,4.29,0,0,0,.46,1.43,2.84,2.84,0,0,0,.89,1,2.31,2.31,0,0,0,.82.39,2.56,2.56,0,0,0,1,.06,2.66,2.66,0,0,0,.9-.3,2.59,2.59,0,0,0,.71-.61,3.21,3.21,0,0,0,.57-1.19A3.76,3.76,0,0,0,24.3,80.48Z"/><path class="cls-1" d="M36.42,84.09,35,84.23l-2.27.22L31,84.63l-1.62.17c-.07-.83-.16-1.72-.25-2.68s-.16-1.79-.24-2.51c-.13-1.29-.23-2.32-.32-3.1s-.15-1.3-.18-1.59l2.45-.24c.06.59.12,1.26.19,2s.13,1.42.19,2l.27,2.53c.08.75.12,1.18.13,1.29l.76-.07.77-.08,1.91-.2,1.14-.12Z"/><path class="cls-1" d="M45,83.45l-1.45.1-2.27.16-1.7.14L37.91,84c0-.83-.12-1.72-.18-2.68s-.12-1.8-.18-2.52l-.24-3.11c-.07-.77-.12-1.31-.14-1.59l2.45-.19c0,.6.09,1.27.14,2s.1,1.42.15,2.06c.07.94.13,1.79.19,2.54s.1,1.17.11,1.28l.76,0,.77,0,1.91-.15,1.15-.1Z"/><path class="cls-1" d="M53.76,83l-1.47.07-2.4.12-2,.11-1.42.08c0-.26,0-.83-.07-1.71s-.09-2-.16-3.33c0-.57-.07-1.29-.12-2.17S46,74.37,46,73.46l1.43-.07,1.87-.09,2.51-.14,1.39-.07.1,1.83-1,0-1.7.08-1.15.06-1,.06q0,.56.06,1.17c0,.42,0,.79,0,1.12l1,0,1,0,1.78-.1,1.07-.07.07,1.48-1.14,0-1.68.08-1,0-1,.06c0,.58.06,1.07.08,1.48s.05.75.06,1l1.19-.05,1.34-.06,1.53-.09.9,0Z"/><path class="cls-1" d="M64.94,82l-2.24.94c-.19-.26-.56-.72-1.12-1.4S60.18,79.8,59,78.39l0-.15a2.78,2.78,0,0,0,.64-.27,2.55,2.55,0,0,0,.65-.48,1.82,1.82,0,0,0,.4-.59,1.78,1.78,0,0,0,.12-.78,1.46,1.46,0,0,0-.25-.8,1.51,1.51,0,0,0-.66-.51,2.14,2.14,0,0,0-.69-.15c-.24,0-.47,0-.69,0h-.45c0,.58,0,1.19,0,1.8s0,1.17,0,1.66q0,1.2.09,2.64c0,1,0,1.64.07,2.07l-2.45.07c0-.39,0-1,0-1.72s0-1.88-.09-3.37c0-.39,0-1-.05-1.69s-.06-1.78-.11-3.14l.89,0c.45,0,.87,0,1.26,0,.74,0,1.38,0,1.92,0a6.45,6.45,0,0,1,1.54.27,3,3,0,0,1,1.56,1,2.46,2.46,0,0,1,.54,1.48,2.52,2.52,0,0,1-.48,1.63,4.34,4.34,0,0,1-1.05,1.05v0c.53.64,1.09,1.28,1.69,1.93A16.43,16.43,0,0,1,64.94,82Z"/><path class="cls-1" d="M72.66,79.69a2.39,2.39,0,0,1-.41,1.41,3.4,3.4,0,0,1-1.16,1,5.14,5.14,0,0,1-1.58.52,12.23,12.23,0,0,1-1.91.18c-.46,0-.88,0-1.25,0l-.73,0-.24-2,.68,0c.39,0,.74,0,1.06,0a7.61,7.61,0,0,0,.86-.06,6.09,6.09,0,0,0,.87-.17,1.36,1.36,0,0,0,.65-.37.79.79,0,0,0,.19-.54.93.93,0,0,0-.22-.59,2.45,2.45,0,0,0-.71-.5c-.21-.1-.49-.23-.85-.38a7.6,7.6,0,0,1-.91-.47,2.79,2.79,0,0,1-1-1,2.46,2.46,0,0,1-.33-1.21,2.33,2.33,0,0,1,.23-1,2.62,2.62,0,0,1,.61-.79,4.11,4.11,0,0,1,1.59-.83,8.7,8.7,0,0,1,2.38-.31c.43,0,.8,0,1.12,0l.59,0,.27,2-.59,0c-.27,0-.6,0-1,0a5.19,5.19,0,0,0-.8.06,4.23,4.23,0,0,0-.72.19,1.17,1.17,0,0,0-.52.31.77.77,0,0,0,0,1,2.5,2.5,0,0,0,.73.51l.8.37q.47.21.9.45a3.14,3.14,0,0,1,1.06,1A2.27,2.27,0,0,1,72.66,79.69Z"/><path class="cls-1" d="M84.52,77.73a5.55,5.55,0,0,1-.45,2.18,4.8,4.8,0,0,1-1.23,1.71,4.66,4.66,0,0,1-1.65,1,5.52,5.52,0,0,1-2,.31,5.78,5.78,0,0,1-1.92-.34,4.59,4.59,0,0,1-1.6-1,5,5,0,0,1-1.22-1.75,5.39,5.39,0,0,1-.43-2.26,5.56,5.56,0,0,1,.4-2.09,4.89,4.89,0,0,1,1.15-1.69,4.79,4.79,0,0,1,1.66-1,5.63,5.63,0,0,1,2.07-.35,5.7,5.7,0,0,1,2,.37,4.84,4.84,0,0,1,2.8,2.79A5.84,5.84,0,0,1,84.52,77.73Zm-2.52,0a4.84,4.84,0,0,0-.24-1.49A2.86,2.86,0,0,0,81,75.07a2.41,2.41,0,0,0-1.69-.69,2.42,2.42,0,0,0-.94.17,2.59,2.59,0,0,0-.8.53,3.15,3.15,0,0,0-.73,1.14,4.37,4.37,0,0,0-.27,1.43,4,4,0,0,0,.24,1.48,2.94,2.94,0,0,0,.73,1.14,2.67,2.67,0,0,0,.76.51,2.54,2.54,0,0,0,1.88,0,2.46,2.46,0,0,0,.79-.5,3.21,3.21,0,0,0,.73-1.09A3.84,3.84,0,0,0,82,77.78Z"/><path class="cls-1" d="M96.27,73.18c0,.86-.09,1.72-.12,2.59s-.07,1.55-.09,2c0,1.12-.07,2.13-.1,3s0,1.45,0,1.69l-1.8.65q-1.78-2.57-3.3-4.57L89,76.18h0c0,1.06-.08,2.35-.12,3.86s-.08,2.43-.09,2.78l-2.28-.09c0-.24,0-.79.08-1.63s.08-1.88.13-3.13c0-.51,0-1.16.06-2s0-1.65.08-2.57l1.94-.7c.21.27.83,1.09,1.85,2.46s2.09,2.74,3.2,4.15h0l.09-3c0-1.34.07-2.42.1-3.23Z"/><path class="cls-1" d="M110,77.61a3.15,3.15,0,0,1-.77,1.89,3.81,3.81,0,0,1-1.81,1.11,6.58,6.58,0,0,1-1.38.24,13.23,13.23,0,0,1-1.54,0l-.18,2.76-2.45-.18c0-.44.09-1.06.15-1.83s.16-2,.27-3.5c0-.56.09-1.24.14-2s.11-1.64.16-2.54l.8,0,.8,0a17.8,17.8,0,0,1,2.51.33,5.68,5.68,0,0,1,1.61.61,3.49,3.49,0,0,1,1.32,1.26A3.08,3.08,0,0,1,110,77.61Zm-2.53,0a1.85,1.85,0,0,0-.18-1,1.71,1.71,0,0,0-.73-.73,2,2,0,0,0-.72-.28c-.26,0-.53-.07-.8-.09h-.22c0,.07,0,.36-.07.86s-.08.91-.1,1.23,0,.68-.08,1.11,0,.68,0,.72h.23a5.33,5.33,0,0,0,.8,0,2.19,2.19,0,0,0,.74-.16,1.86,1.86,0,0,0,.83-.6A1.84,1.84,0,0,0,107.48,77.59Z"/><path class="cls-1" d="M120.55,84.51l-2.49.56q0-.25-.27-1.11c-.14-.57-.32-1.22-.53-1.94l-3.75-.38c-.36.67-.67,1.28-.93,1.81l-.48,1-2.18-1,1.9-3.36c1.1-1.95,2.15-3.83,3.15-5.62l2.5.25,2,6.32Zm-3.7-4.08c-.14-.52-.29-1.09-.45-1.72s-.32-1.24-.49-1.84h0c-.23.45-.51,1-.84,1.7s-.6,1.21-.8,1.59h0l2.61.27Z"/><path class="cls-1" d="M130.67,85.81l-2.36.57c-.15-.29-.44-.81-.88-1.56s-1.1-1.92-2-3.5l0-.15a2.57,2.57,0,0,0,.68-.16,2.43,2.43,0,0,0,.72-.36,1.75,1.75,0,0,0,.74-1.27,1.45,1.45,0,0,0-.12-.83,1.4,1.4,0,0,0-.57-.61,2.55,2.55,0,0,0-.66-.27l-.68-.12-.3,0-.14,0c-.08.59-.17,1.18-.25,1.79s-.17,1.16-.23,1.64c-.11.8-.23,1.67-.35,2.62s-.22,1.64-.27,2.06l-2.43-.34c.06-.38.14-1,.25-1.7s.27-1.86.47-3.33c.05-.39.13-1,.23-1.68s.23-1.77.4-3.12l.89.11,1.25.15q1.09.15,1.89.33a6.24,6.24,0,0,1,1.47.52,3.07,3.07,0,0,1,1.38,1.2,2.46,2.46,0,0,1,.3,1.55,2.53,2.53,0,0,1-.75,1.53,4.15,4.15,0,0,1-1.2.86v0c.42.71.88,1.44,1.36,2.18A15.8,15.8,0,0,1,130.67,85.81Z"/><path class="cls-1" d="M134.15,87.12l-2.42-.43c0-.17.15-.72.32-1.66s.41-2.18.68-3.73c.11-.57.23-1.25.36-2s.27-1.56.4-2.35l2.42.43c-.13.71-.29,1.53-.46,2.44s-.32,1.75-.45,2.49l-.59,3.31C134.26,86.45,134.17,87,134.15,87.12Zm6.58.45-2.32.51q-1.17-2.14-2.21-3.86c-.7-1.15-1.08-1.77-1.16-1.86v0L137,80.62c1-.86,1.95-1.76,3-2.72l2,1.27q-1.24,1-2.55,2.19c-.87.77-1.38,1.21-1.54,1.32h0c0,.08.36.58.91,1.52S139.94,86.27,140.73,87.57Z"/><path class="cls-2" d="M138.49,6.83h-7.31a1.85,1.85,0,0,0-1.85,1.85l-2.65,11.9V1.85A1.85,1.85,0,0,0,124.83,0h-7.31a1.85,1.85,0,0,0-1.85,1.85V20.58L113,8.68a1.85,1.85,0,0,0-1.85-1.85h-7.31A1.85,1.85,0,0,0,102,8.68l8.58,33.49h21.17l8.58-33.49A1.85,1.85,0,0,0,138.49,6.83Z"/><path class="cls-2" d="M69.93,58.61,76.24,34a1.37,1.37,0,0,0-1.36-1.36H69.5A1.37,1.37,0,0,0,68.14,34L66.2,42.76V29a1.36,1.36,0,0,0-1.36-1.36H59.47A1.36,1.36,0,0,0,58.11,29V42.76L56.17,34a1.37,1.37,0,0,0-1.36-1.36H49.44A1.37,1.37,0,0,0,48.08,34l6.3,24.6Z"/><path class="cls-3" d="M148.31,48.56a1.85,1.85,0,0,0-1.85-1.85H95.16a1.85,1.85,0,0,0-1.85,1.85l4.19,17.7a331.54,331.54,0,0,1,45.32,5.18Z"/><path class="cls-2" d="M25.16,55.27a1.22,1.22,0,0,0-1.22-1.21h-4.8a1.21,1.21,0,0,0-1.21,1.21l-1.74,8.5v-13A1.22,1.22,0,0,0,15,49.57h-4.8A1.22,1.22,0,0,0,9,50.79V63.08L7.23,55.27A1.22,1.22,0,0,0,6,54.06H1.22A1.22,1.22,0,0,0,0,55.27L4.3,72C9.23,71,15,70,21.61,69.1Z"/><path class="cls-3" d="M81.79,65.73l.3-2.43a1.37,1.37,0,0,0-1.36-1.36H43.05a1.37,1.37,0,0,0-1.36,1.36l.41,3.4c9.36-.64,19.8-1,31.39-1C76.33,65.66,79.09,65.69,81.79,65.73Z"/><path class="cls-1" d="M28.28,95.3c0,.16-.06.35-.09.56s-.06.45-.09.71h-.21a7.3,7.3,0,0,1-2-.25,4.08,4.08,0,0,1-1.5-.76,2.87,2.87,0,0,1-.75-.92,2.73,2.73,0,0,1-.26-1.21,2.43,2.43,0,0,1,.26-1.15,2.84,2.84,0,0,1,.73-.9,4.28,4.28,0,0,1,1.52-.78,7.21,7.21,0,0,1,1.94-.26H28c0,.13,0,.31.06.54s.06.48.1.73H28a7.28,7.28,0,0,0-.93.08,4.49,4.49,0,0,0-.95.26,2.31,2.31,0,0,0-.87.62,1.31,1.31,0,0,0-.31.87,1.4,1.4,0,0,0,.3.88,2.18,2.18,0,0,0,.86.61,3.42,3.42,0,0,0,1,.29,7.41,7.41,0,0,0,1,.08h.27Z"/><path class="cls-1" d="M35.32,93.44a3.48,3.48,0,0,1-.26,1.34,3.17,3.17,0,0,1-.74,1.06,3,3,0,0,1-1,.62,3.68,3.68,0,0,1-1.2.2,3.52,3.52,0,0,1-1.18-.19,2.93,2.93,0,0,1-1.75-1.65,3.32,3.32,0,0,1-.28-1.39,3.51,3.51,0,0,1,.23-1.28,3.1,3.1,0,0,1,1.71-1.7,3.44,3.44,0,0,1,1.26-.23,3.55,3.55,0,0,1,1.24.21,2.74,2.74,0,0,1,1,.63,2.8,2.8,0,0,1,.73,1.07A3.32,3.32,0,0,1,35.32,93.44Zm-1.55,0a2.85,2.85,0,0,0-.15-.91,1.71,1.71,0,0,0-.48-.75,1.31,1.31,0,0,0-.46-.3,1.48,1.48,0,0,0-.57-.11,1.54,1.54,0,0,0-.58.11,1.41,1.41,0,0,0-.49.33,2,2,0,0,0-.44.71,2.57,2.57,0,0,0-.15.87,2.67,2.67,0,0,0,.15.91,1.9,1.9,0,0,0,.46.7,1.72,1.72,0,0,0,.47.3,1.4,1.4,0,0,0,.58.11,1.51,1.51,0,0,0,1-.42,1.82,1.82,0,0,0,.44-.68A2.11,2.11,0,0,0,33.77,93.49Z"/><path class="cls-1" d="M44.33,96.29l-1.45.27-.76-4.1h0l-.54,1.28c-.28.67-.56,1.37-.85,2.12H39.57c-.28-.75-.57-1.46-.86-2.14l-.53-1.25h0c0,.14-.14.64-.31,1.49s-.34,1.71-.49,2.61L36,96.29c.32-1.42.59-2.7.82-3.85s.36-1.8.4-2l1.46-.15c0,.12.21.55.5,1.3l1,2.55h0c.31-.76.64-1.57,1-2.45s.55-1.33.57-1.4l1.49.13c0,.1.13.72.33,1.85S44,94.76,44.33,96.29Z"/><path class="cls-1" d="M53.15,96.29l-1.45.27-.76-4.1h0l-.54,1.28c-.28.67-.56,1.37-.85,2.12H48.39c-.28-.75-.57-1.46-.86-2.14L47,92.46h0c0,.14-.13.64-.31,1.49s-.33,1.71-.49,2.61l-1.41-.27c.32-1.42.59-2.7.82-3.85s.36-1.8.4-2l1.46-.15c0,.12.21.55.51,1.3s.63,1.59,1,2.55h0l1-2.45c.35-.87.54-1.33.56-1.4l1.49.13c0,.1.13.72.33,1.85S52.86,94.76,53.15,96.29Z"/><path class="cls-1" d="M59.82,90.39c0,.57,0,1,0,1.34v2.44a2.54,2.54,0,0,1-.21,1.08A2,2,0,0,1,59,96a2.61,2.61,0,0,1-.9.48,4.08,4.08,0,0,1-2.33,0,2.81,2.81,0,0,1-.85-.48,2,2,0,0,1-.57-.76,2.69,2.69,0,0,1-.2-1.07c0-.18,0-.4,0-.65v-.89c0-.3,0-.6,0-.91s0-.74,0-1.31h1.51c0,.26,0,.58,0,1v2.71a1.34,1.34,0,0,0,.36,1,1.4,1.4,0,0,0,1,.34,1.34,1.34,0,0,0,1-.33,1.37,1.37,0,0,0,.34-1c0-.24,0-.49,0-.73v-.68c0-.49,0-.93,0-1.32s0-.7,0-1Z"/><path class="cls-1" d="M67.23,90.39c0,.53,0,1.06,0,1.59s0,1,0,1.26c0,.69,0,1.3,0,1.85s0,.89,0,1l-1.09.44Q65,95,64,93.84c-.66-.79-1.05-1.28-1.2-1.44h0c0,.65,0,1.44,0,2.36s0,1.5,0,1.71h-1.4c0-.15,0-.48,0-1s0-1.16,0-1.92V92.35c0-.49,0-1,0-1.57l1.18-.48,1.19,1.47c.66.81,1.34,1.63,2,2.47h0c0-.42,0-1,0-1.86s0-1.48,0-2Z"/><path class="cls-1" d="M70.37,96.48H68.86c0-.26,0-.63,0-1.12s0-1.15,0-2V92c0-.54,0-1.09,0-1.65h1.51c0,.42,0,.89,0,1.44s0,1,0,1.44c0,.86,0,1.52,0,2S70.37,96.14,70.37,96.48Z"/><path class="cls-1" d="M76.7,91.64h-2c0,.48,0,.86,0,1.15V93.9c0,.52,0,1,0,1.5s0,.85,0,1.08H73.17c0-.22,0-.57,0-1s0-1,0-1.55V92.82c0-.29,0-.69,0-1.19h-2V90.4H76.7Z"/><path class="cls-1" d="M82.47,90.78c-.07.12-.37.55-.9,1.3s-1,1.36-1.29,1.85c0,.51,0,1,0,1.46s0,.83,0,1.09H78.78c0-.22,0-.57,0-1s0-1,0-1.45q-.51-.77-1.26-1.83c-.49-.71-.8-1.15-.92-1.34L78,90.27c.09.17.3.49.61,1l.94,1.38h0l1-1.47c.33-.47.52-.76.58-.86Z"/><path class="cls-1" d="M90.39,93.32c0,.23,0,.49,0,.77v1.6c0,.29,0,.55,0,.79l-.42,0-.61,0a7.53,7.53,0,0,1-1.85-.21A4,4,0,0,1,86,95.57a2.6,2.6,0,0,1-.74-.9A2.63,2.63,0,0,1,85,93.43a2.54,2.54,0,0,1,.38-1.37,3,3,0,0,1,1.1-1,4.59,4.59,0,0,1,1.35-.53,7.63,7.63,0,0,1,1.72-.18h.39l.17,1.26H89.7a7,7,0,0,0-1,.07,4.87,4.87,0,0,0-.95.25,2.2,2.2,0,0,0-.9.66,1.52,1.52,0,0,0-.33,1,1.71,1.71,0,0,0,.26,1,1.87,1.87,0,0,0,.67.61,2.89,2.89,0,0,0,.7.25,4.18,4.18,0,0,0,.79.11v-.61c0-.36,0-.86,0-1.52Z"/><path class="cls-1" d="M97.48,96.12l-1.49.5c0-.1-.11-.32-.23-.66s-.27-.72-.44-1.15H93c-.18.43-.33.82-.45,1.16s-.2.55-.23.65l-1.4-.48,1-2.16,1.58-3.63H95l1.61,3.73C97.14,95.35,97.44,96,97.48,96.12ZM95,93.86c-.11-.31-.24-.65-.38-1s-.27-.74-.41-1.09h0c-.11.29-.25.65-.41,1.09s-.29.77-.39,1H95Z"/><path class="cls-1" d="M103.79,96.07l-1.39.54c-.11-.16-.34-.46-.67-.88s-.83-1.07-1.5-2l0-.09a1.89,1.89,0,0,0,.4-.15,1.86,1.86,0,0,0,.41-.29,1.06,1.06,0,0,0,.34-.83.91.91,0,0,0-.14-.49.86.86,0,0,0-.4-.33,1.44,1.44,0,0,0-.42-.11l-.42,0h-.28v1.11c0,.38,0,.72,0,1,0,.49,0,1,0,1.62s0,1,0,1.27H98.24c0-.24,0-.59,0-1.06s0-1.15,0-2.06v-1c0-.45,0-1.09,0-1.93h1.33c.45,0,.84,0,1.17,0a4,4,0,0,1,.94.19,1.87,1.87,0,0,1,.94.62,1.46,1.46,0,0,1,.31.92,1.52,1.52,0,0,1-.33,1,2.55,2.55,0,0,1-.65.63v0c.31.4.65.81,1,1.22A9.54,9.54,0,0,1,103.79,96.07Z"/><path class="cls-1" d="M110.29,93.47a2.52,2.52,0,0,1-.39,1.4,3,3,0,0,1-1,1,4.52,4.52,0,0,1-1.23.49,6.74,6.74,0,0,1-1.58.16h-1.5s0-.35,0-1,0-1.33,0-2.15c0-.34,0-.76,0-1.27s0-1.08,0-1.71h1.35a8.07,8.07,0,0,1,1.74.17,4.11,4.11,0,0,1,1.32.53,2.68,2.68,0,0,1,1,1A2.77,2.77,0,0,1,110.29,93.47Zm-1.54,0a1.78,1.78,0,0,0-.2-.83,1.75,1.75,0,0,0-.63-.64,2.66,2.66,0,0,0-.84-.32,4.32,4.32,0,0,0-.85-.09h-.17v3.78h.15a3.87,3.87,0,0,0,.87-.1,2.82,2.82,0,0,0,.75-.27,1.89,1.89,0,0,0,.69-.65A1.72,1.72,0,0,0,108.75,93.42Z"/><path class="cls-1" d="M116.06,96.48h-4.48c0-.16,0-.51,0-1V92.05c0-.54,0-1.09,0-1.65H116v1.12h-3c0,.23,0,.47,0,.72v.68h3v.91h-3v.91c0,.26,0,.46,0,.62h3Z"/><path class="cls-1" d="M123.25,90.39c0,.53,0,1.06,0,1.59s0,1,0,1.26c0,.69,0,1.3,0,1.85v1l-1.08.44Q121,95,120,93.84l-1.2-1.44h0c0,.65,0,1.44,0,2.36s0,1.5,0,1.71h-1.4c0-.15,0-.48,0-1s0-1.16,0-1.92c0-.32,0-.72,0-1.21s0-1,0-1.57l1.18-.48,1.19,1.47c.65.81,1.34,1.63,2,2.47h0c0-.42,0-1,0-1.86s0-1.48,0-2Z"/></g></g></svg>